<svg xmlns="http://www.w3.org/2000/svg" viewBox="447.89 225.54 287.94 411.9">
<g>
<path d="M 680.83 636.93 C677.41,636.43 662.91,631.08 644.33,623.47 C627.37,616.53 586.50,600.05 553.50,586.84 C520.50,573.64 491.42,561.70 488.87,560.32 C486.32,558.94 481.46,555.57 478.07,552.82 C446.02,526.89 438.34,479.07 460.63,444.22 C468.02,432.67 481.32,421.25 493.58,415.94 C496.28,414.77 510.88,409.09 526.00,403.32 C541.12,397.56 557.00,391.46 561.27,389.77 C565.54,388.08 569.27,386.94 569.56,387.23 C569.85,387.52 563.16,402.32 554.69,420.13 C538.94,453.23 537.62,456.40 536.49,463.70 C535.77,468.37 537.41,477.88 539.74,482.50 C542.36,487.71 547.97,493.90 552.45,496.52 C554.82,497.91 572.23,505.28 591.13,512.89 C699.34,556.46 708.66,560.34 713.40,563.80 C719.05,567.94 725.37,577.14 727.51,584.36 C730.67,594.99 728.76,608.87 722.86,618.17 C713.84,632.37 697.93,639.48 680.83,636.93 ZM 614.00 475.80 C614.00,475.26 620.81,460.58 629.12,443.16 C637.44,425.75 644.87,409.76 645.62,407.62 C647.46,402.47 647.37,390.43 645.47,384.93 C644.63,382.49 642.40,378.40 640.52,375.83 C634.04,366.99 638.59,369.07 529.50,325.03 C502.00,313.93 477.09,303.42 474.15,301.67 C467.67,297.83 461.92,291.21 458.24,283.35 C455.80,278.14 455.50,276.36 455.50,267.00 C455.50,257.29 455.74,256.00 458.66,249.82 C462.99,240.68 468.76,234.72 477.39,230.47 C486.25,226.10 494.29,224.69 502.67,226.03 C506.28,226.60 518.10,230.76 530.70,235.87 C562.62,248.83 624.90,273.97 661.00,288.46 C695.35,302.25 700.37,304.80 709.24,312.94 C726.17,328.46 734.66,346.94 735.72,370.57 C736.79,394.61 730.31,412.76 714.59,429.74 C706.63,438.32 697.40,444.16 682.32,450.15 C643.33,465.64 614.00,476.65 614.00,475.80 Z" fill="rgba(0,0,0,1)"/>
</g>
</svg>